Coordinates
version=1
nRows=11
nColumns=36
inDegrees=yes

Units are S.I. units (second, meters, Newtons, ...)
If the header above contains a line with 'inDegrees', this indicates whether rotational values are in degrees (yes) or radians (no).

endheader
time	pelvis_tilt	pelvis_list	pelvis_rotation	pelvis_tx	pelvis_ty	pelvis_tz	hip_flexion_r	hip_adduction_r	hip_rotation_r	knee_angle_r	knee_angle_r_beta	ankle_angle_r	subtalar_angle_r	mtp_angle_r	hip_flexion_l	hip_adduction_l	hip_rotation_l	knee_angle_l	knee_angle_l_beta	ankle_angle_l	subtalar_angle_l	mtp_angle_l	lumbar_extension	lumbar_bending	lumbar_rotation	arm_flex_r	arm_add_r	arm_rot_r	elbow_flex_r	pro_sup_r	arm_flex_l	arm_add_l	arm_rot_l	elbow_flex_l	pro_sup_l
      0.00000000	     -3.62141787	     -0.30892868	     -0.23784956	      0.37455236	      0.93169281	     -0.04385164	      3.30689979	     -8.53288832	     -0.54818390	      4.61267751	      0.08050641	     -0.87194488	    -12.51256162	     -5.24439148	      2.23337635	     -4.59722581	      1.49044860	      4.91387401	      0.08576328	      4.10533977	     -8.32827162	     -5.24439148	     -1.24444734	      0.67536528	     -2.46864149	      0.66828323	    -26.95799994	     19.10893814	     66.36794963	     76.29460877	      4.11369378	    -30.52863776	     12.65285786	     66.45493749	     71.82969670
      0.01666670	     -5.82925164	     -0.25750069	      0.48222105	      0.37654055	      0.92839469	     -0.04415574	      4.43209209	     -8.56562963	     -0.51118855	      3.07456763	      0.05366133	      1.85247019	     -8.88227907	     -5.53987189	      4.83678631	     -4.53713988	      1.47155204	      3.95028840	      0.06894554	      4.25578678	     -5.90418371	     -5.53987189	      2.50715460	      0.05108640	     -3.07601163	     -1.24609603	    -28.41037578	     19.96070450	     69.94088555	     75.75180841	      4.05759360	    -31.55571132	     11.55400669	     65.34711900	     70.94198880
      0.03333330	     -6.31569422	      0.22001451	      0.62706924	      0.37256045	      0.92760923	     -0.04781599	      4.57835217	     -9.40381300	     -0.99486499	      2.19076840	      0.03823612	      2.42016741	     -8.33515704	     -5.57741565	      5.19489035	     -4.02783629	      0.92286704	      3.14024954	      0.05480769	      3.65760915	     -4.71874122	     -5.57741565	      2.66186168	     -0.91679457	     -3.31505892	     -1.26729328	    -29.81822749	     21.02540866	     72.19211270	     76.89468999	      5.55203902	    -34.04369336	     12.38778026	     66.92881857	     71.35514461
      0.05000000	     -6.01841587	      0.53849744	      0.89011688	      0.37217391	      0.93319309	     -0.04805289	      3.96854752	     -9.89530342	     -1.46156266	      1.61008391	      0.02810127	      3.21491512	     -7.21266900	     -5.91433225	      4.47754580	     -3.65920245	      0.87506442	      2.15950515	      0.03769048	      3.29906163	     -3.81114734	     -5.91433225	      2.08923633	     -1.64785529	     -2.44759309	     -2.41683112	    -30.71829569	     19.39975991	     74.00832898	     84.41282276	      8.87376349	    -35.59112430	     15.03893755	     65.81251147	     72.74959760
      0.06666670	     -5.85951631	      0.61711051	      0.85067696	      0.37170092	      0.93253538	     -0.04783529	      3.67933319	     -9.97920494	     -1.36644945	      1.29256933	      0.02255959	      3.47796150	     -7.19286592	     -7.17349900	      4.02847270	     -3.58178237	      0.93619743	      1.55165239	      0.02708144	      3.33137399	     -3.42613495	     -7.17349900	      1.69926083	     -1.82921303	     -2.06409423	     -2.26930710	    -32.17864250	     19.52031203	     76.59685565	     86.84839522	      9.91904402	    -36.52722642	     14.05612547	     66.98789211	     71.65643442
      0.08333330	     -5.61063701	      0.66010870	      0.90704853	      0.37138794	      0.93503485	     -0.04767365	      3.39828480	     -9.98145279	     -1.44647968	      1.23546812	      0.02156299	      3.80780812	     -6.89827471	     -7.43784913	      3.66768871	     -3.53497852	      1.19173308	      1.29230845	      0.02255504	      3.25331397	     -3.28957852	     -7.43784913	      1.42749660	     -2.02799334	     -1.56742359	     -2.39565807	    -33.44081166	     18.04475530	     79.08077980	     86.72121668	     11.64007177	    -37.36079807	     14.88018537	     67.71668762	     70.68884882
      0.10000000	     -5.34444985	      0.67490432	      0.88582448	      0.37102358	      0.93467020	     -0.04734612	      3.13522502	     -9.96253513	     -1.42546285	      1.21205345	      0.02115432	      4.00874913	     -6.84991376	     -7.46796294	      3.33672707	     -3.55116878	      1.28415344	      1.17904489	      0.02057822	      3.27493274	     -3.14719220	     -7.46796294	      1.24419417	     -2.09680927	     -1.28600317	     -1.72614061	    -35.11900626	     17.27898309	     80.66044001	     86.22062401	     13.31586487	    -38.57403606	     15.51959206	     69.82534888	     69.86217983
      0.11666670	     -5.10528614	      0.69647148	      0.69633417	      0.37069546	      0.94015625	     -0.04703861	      2.93773457	     -9.92924645	     -1.38633046	      1.19640948	      0.02088128	      3.96297524	     -6.59860577	     -7.46861999	      3.00378570	     -3.55977632	      1.16358164	      1.06807866	      0.01864149	      3.09454731	     -2.98061551	     -7.46861999	      1.08728725	     -2.05233463	     -1.38238296	     -0.47074530	    -36.25309780	     16.89716221	     81.20647393	     86.16606959	     14.31992998	    -40.09738414	     16.35027211	     70.82497363	     69.91647484
      0.13333330	     -4.86084171	      0.68568919	      0.62252285	      0.37472344	      0.93959683	     -0.04246574	      2.59471631	     -9.77608914	     -1.40808178	      1.11149914	      0.01939932	      4.02403163	     -6.36016540	     -7.46924567	      2.62375133	     -3.69367128	      1.10713808	      1.02882644	      0.01795641	      2.93179858	     -2.79040753	     -7.46924567	      1.13048107	     -2.07289560	     -1.49237350	     -0.03994096	    -36.96288693	     16.33521738	     82.54526101	     86.05300096	     14.76608382	    -41.94474943	     17.15812059	     72.11366261	     69.88605602
      0.15000000	     -4.68546783	      0.67878017	      0.54352281	      0.37426809	      0.93892390	     -0.04253285	      2.28153987	     -9.65778379	     -1.47436560	      0.96935464	      0.01691843	      4.11080079	     -6.04234147	     -7.47940308	      2.29828710	     -3.82247158	      1.01612025	      0.97655569	      0.01704411	      2.90953518	     -2.46615600	     -7.47940308	      1.14487394	     -2.16483371	     -1.08639973	     -0.03167556	    -37.76531759	     15.68711561	     83.47711288	     81.57199190	     15.05959367	    -43.54940743	     17.70384627	     73.95047800	     67.65929710
      0.16666670	     -4.53870553	      0.67832471	      0.49426765	      0.37412767	      0.94105022	     -0.04226046	      2.05095963	     -9.58187528	     -1.55188168	      0.88991757	      0.01553199	      4.22024202	     -5.93249101	     -7.49064901	      2.01449454	     -3.94356037	      1.07374079	      0.92286523	      0.01610704	      2.93530140	     -2.37402692	     -7.49064901	      1.12606449	     -2.28958095	     -0.10763610	     -0.51286124	    -38.25649673	     12.27069079	     83.62031069	     85.27055565	     17.26312341	    -44.78361114	     20.11882878	     74.88224633	     67.60770120
